Input #0, mpeg, from '01.mpg':
  Duration: 00:00:10.05, start: 0.529089, bitrate: 779 kb/s
    Stream #0:0[0x1e0]: Video: mpeg1video, yuv420p(tv), 640x480 [SAR 1:1 DAR 4:3], 104857 kb/s, 25 fps, 25 tbr, 90k tbn, 25 tbc
    Stream #0:1[0x1c0]: Audio: mp2, 44100 Hz, stereo, s16p, 64 kb/s
音视频分离
Demuxing video from file '01.mpg' into '03.yuv'
Demuxing audio from file '01.mpg' into '03.pcm'
Demuxing succeeded.
Play the output video file with the command:
ffplay -f rawvideo -pix_fmt yuv420p -video_size 640x480 03.yuv
Warning: the sample format the decoder produced is planar (s16p). This example will output the first channel only.
Play the output audio file with the command:
ffplay -f s16le -ac 1 -ar 44100 03.pcm
